<svg width="14" height="17" viewBox="0 0 14 17" fill="none" xmlns="http://www.w3.org/2000/svg">
<path d="M8.6875 7.375C8.6875 6.92745 8.50971 6.49822 8.19324 6.18176C7.87678 5.86529 7.44755 5.6875 7 5.6875C6.55245 5.6875 6.12322 5.86529 5.80676 6.18176C5.49029 6.49822 5.3125 6.92745 5.3125 7.375C5.3125 7.82255 5.49029 8.25178 5.80676 8.56824C6.12322 8.88471 6.55245 9.0625 7 9.0625C7.44755 9.0625 7.87678 8.88471 8.19324 8.56824C8.50971 8.25178 8.6875 7.82255 8.6875 7.375ZM13.75 7.375C13.75 10.6082 10.2659 14.143 8.30387 15.8777C7.94513 16.1981 7.48098 16.3752 7 16.3752C6.51902 16.3752 6.05487 16.1981 5.69613 15.8777C3.73413 14.143 0.25 10.6082 0.25 7.375C0.25 6.48858 0.424594 5.61083 0.763813 4.79189C1.10303 3.97294 1.60023 3.22882 2.22703 2.60203C2.85382 1.97523 3.59794 1.47803 4.41689 1.13881C5.23583 0.799594 6.11358 0.625 7 0.625C7.88642 0.625 8.76417 0.799594 9.58311 1.13881C10.4021 1.47803 11.1462 1.97523 11.773 2.60203C12.3998 3.22882 12.897 3.97294 13.2362 4.79189C13.5754 5.61083 13.75 6.48858 13.75 7.375ZM12.625 7.375C12.625 5.88316 12.0324 4.45242 10.9775 3.39752C9.92258 2.34263 8.49184 1.75 7 1.75C5.50816 1.75 4.07742 2.34263 3.02252 3.39752C1.96763 4.45242 1.375 5.88316 1.375 7.375C1.375 8.6215 2.06688 10.0694 3.14125 11.5184C4.192 12.9336 5.48912 14.1925 6.44087 15.0351C6.59401 15.1739 6.79331 15.2508 7 15.2508C7.20669 15.2508 7.40599 15.1739 7.55912 15.0351C8.51087 14.1925 9.80912 12.9347 10.8588 11.5184C11.9331 10.0694 12.625 8.6215 12.625 7.375Z" fill="white"/>
</svg>
